<?xml version="1.0" standalone="no"?>
<!DOCTYPE svg PUBLIC "-//W3C//DTD SVG 1.1//EN" "http://www.w3.org/Graphics/SVG/1.1/DTD/svg11.dtd" >
<svg xmlns="http://www.w3.org/2000/svg">
<metadata>
This is a custom SVG webfont generated by Font Squirrel.
Copyright   : Copyright c 2008 by Monotype Imaging Inc All rights reserved
Designer    : Jim Wasco
Foundry     : Monotype Imaging Inc
</metadata>
<defs>
<font id="GatoradeBlack" horiz-adv-x="1198" >
<font-face units-per-em="2048" ascent="1638" descent="-410" />
<missing-glyph horiz-adv-x="495" />
<glyph unicode=" "  horiz-adv-x="495" />
<glyph unicode="&#x09;" horiz-adv-x="495" />
<glyph unicode="&#xa0;" horiz-adv-x="495" />
<glyph unicode="!" horiz-adv-x="638" d="M129 0v344h381v-344h-381zM129 1036v326h377v-326l-74 -532h-225z" />
<glyph unicode="&#x22;" horiz-adv-x="952" d="M104 1188v211h306v-211l-72 -393h-164zM545 1188v211h303v-211l-70 -393h-164z" />
<glyph unicode="#" horiz-adv-x="1175" d="M6 365l82 225h143l78 211h-159l86 225h157l121 334h205l-121 -334h240l120 334h205l-121 -334h144l-86 -225h-142l-77 -211h157l-84 -225h-157l-131 -365h-205l131 365h-240l-131 -365h-205l131 365h-141zM436 590h240l78 211h-240z" />
<glyph unicode="$" d="M117 0v471h260v-86q0 -53 55 -106.5t146 -53.5q70 0 105.5 36t35.5 99q0 55 -36 98.5t-142 78.5q-217 72 -319.5 172t-102.5 288q0 152 98 261.5t256 125.5v162h260v-205q37 -16 72 -45v64h260v-412h-260v47q0 51 -47 92t-113 41q-59 0 -94 -29.5t-35 -82.5q0 -51 42 -88 t149 -72q215 -68 315 -176.5t100 -278.5q0 -166 -104.5 -292.5t-284.5 -139.5v-188h-260v231q-61 31 -96 66v-78h-260z" />
<glyph unicode="%" horiz-adv-x="1611" d="M35 1018q0 193 101.5 287t242.5 94q135 -2 232.5 -91t97.5 -288q0 -113 -34 -194t-88.5 -121.5t-107.5 -58t-110 -17.5q-137 0 -235.5 91t-98.5 298zM297 1020q0 -193 80 -193q29 0 49 54.5t20 134.5q0 184 -77 184q-31 0 -51.5 -52t-20.5 -128zM322 0l712 1360h248 l-713 -1360h-247zM903 348q0 193 101.5 287t242.5 94q135 -2 232.5 -91t97.5 -288q0 -113 -34 -193.5t-88 -121.5t-107.5 -58.5t-110.5 -17.5q-137 0 -235.5 91t-98.5 298zM1165 350q0 -193 80 -192q29 0 49.5 54t20.5 134q0 184 -78 184q-31 0 -51.5 -52t-20.5 -128z" />
<glyph unicode="&#x26;" horiz-adv-x="1372" d="M43 375q0 233 283 403q-102 152 -103 287q0 141 98.5 237.5t307.5 96.5q174 0 278.5 -81t104.5 -218q0 -209 -283 -379q100 -139 240 -277q20 29 45 88h-82v240h397v-242h-86q-23 -115 -96 -231q76 -41 170 -41h12v-258h-47q-209 0 -334 84q-174 -127 -403 -127 q-240 0 -371 123t-131 295zM416 410q0 -74 47 -121t145 -47q59 0 123 24q-125 125 -246 293q-69 -67 -69 -149zM559 1053q0 -66 49 -146q119 70 119 164q0 33 -21.5 59.5t-58.5 26.5q-39 0 -63.5 -29.5t-24.5 -74.5z" />
<glyph unicode="'" horiz-adv-x="522" d="M104 1188v211h306v-211l-72 -393h-164z" />
<glyph unicode="(" horiz-adv-x="632" d="M45 479q0 248 75 507t226 476h285q-256 -475 -256 -983q0 -506 256 -981h-285q-152 217 -226.5 476t-74.5 505z" />
<glyph unicode=")" horiz-adv-x="632" d="M2 -502q256 475 256 983q0 506 -256 981h285q152 -217 226.5 -476t74.5 -505q0 -248 -75 -507t-226 -476h-285z" />
<glyph unicode="*" horiz-adv-x="790" d="M37 1069l67 207l222 -117l-41 240h217l-45 -244l227 121l68 -207l-263 -35l197 -184l-174 -129l-121 235l-119 -235l-174 129l197 184z" />
<glyph unicode="+" horiz-adv-x="1101" d="M102 500v262h318v336h262v-336h317v-262h-317v-336h-262v336h-318z" />
<glyph unicode="," horiz-adv-x="638" d="M129 0v340h381v-131q0 -256 -137 -471h-189q72 152 86 262h-141z" />
<glyph unicode="-" horiz-adv-x="688" d="M61 500v262h566v-262h-566z" />
<glyph unicode="." horiz-adv-x="638" d="M129 0v344h381v-344h-381z" />
<glyph unicode="/" horiz-adv-x="827" d="M-33 -270l500 1691h334l-498 -1691h-336z" />
<glyph unicode="0" d="M41 690q0 182 49 322.5t133 220.5t182.5 119t208.5 39q102 0 193.5 -37t172.5 -114t129 -217t48 -329q0 -166 -37 -297t-94 -208.5t-134 -129t-147.5 -70t-142.5 -18.5q-104 0 -198.5 36t-178.5 115t-134 224t-50 344zM475 698q0 -244 32 -354.5t99 -110.5q117 0 117 459 q0 436 -123 436q-125 0 -125 -430z" />
<glyph unicode="1" d="M289 0v287h141v786h-141v287h542v-1073h142v-287h-684z" />
<glyph unicode="2" d="M84 0v309l444 402q133 121 134 264q0 119 -91 119q-106 0 -106 -236h-371q0 96 30 186.5t90 166t163.5 121.5t234.5 46q229 0 355.5 -112.5t126.5 -268.5q0 -72 -30 -140.5t-64.5 -115.5t-108.5 -108.5t-114 -89t-128 -84.5l-170 -113h365v160h260v-506h-1020z" />
<glyph unicode="3" d="M82 446h338q0 -172 141 -172t141 162q0 164 -190 164h-82v234h84q78 0 114 38.5t36 102.5q0 125 -100.5 125t-100.5 -166h-338q0 209 138 326.5t339 117.5q98 0 181 -18.5t156 -59t115 -118.5t42 -185q0 -111 -72 -181.5t-162 -94.5v-6q272 -82 273 -338 q0 -164 -137.5 -280.5t-395.5 -116.5q-506 -1 -520 466z" />
<glyph unicode="4" d="M63 377v235l541 748h373v-746h166v-237h-166v-119h108v-258h-636v258h129v119h-515zM315 614h265v367h-9z" />
<glyph unicode="5" d="M80 467h369q0 -92 34.5 -142.5t94.5 -50.5q127 0 127 195q0 74 -36 132t-106 58q-96 0 -125 -73l-315 2l67 772h834v-309h-557l-18 -191q10 10 36.5 21.5t83 24t121.5 12.5q223 0 334 -131.5t111 -323.5q0 -207 -132.5 -348.5t-384.5 -141.5q-256 0 -392 126t-146 368z " />
<glyph unicode="6" d="M49 645q0 756 582 756q170 0 310 -113.5t161 -316.5h-342q-8 172 -139 172q-78 0 -116 -92.5t-38 -214.5h6q74 74 211 73q225 0 351 -128t126 -332q0 -195 -139 -342.5t-385 -147.5q-252 0 -420 175t-168 511zM475 432q0 -90 42 -151.5t106 -61.5q57 0 96 58.5t39 154.5 q0 94 -40 154.5t-102 60.5q-63 0 -102 -59.5t-39 -155.5z" />
<glyph unicode="7" d="M94 829v531h1082v-242l-484 -1118h-436l487 1028h-389v-199h-260z" />
<glyph unicode="8" d="M43 377q0 137 80 223t221 115v2q-117 25 -189.5 106.5t-72.5 200.5q0 168 137 271.5t379 103.5t380 -101.5t138 -265.5q0 -246 -266 -311v-4q143 -31 224 -118t81 -232q0 -182 -151.5 -297t-407.5 -115q-248 0 -400.5 118t-152.5 304zM440 393q0 -74 43 -121t113 -47 q74 0 118 45t44 115q0 80 -45 125t-117 45q-68 0 -112 -44t-44 -118zM485 991q0 -55 33 -93t80 -38t81 38t34 93q0 66 -30 101.5t-83 35.5t-84 -39t-31 -98z" />
<glyph unicode="9" d="M70 918q0 193 139 337t385 144q256 0 411.5 -161t155.5 -509q0 -770 -577 -770q-117 0 -222.5 45t-179 146.5t-73.5 238.5h342q4 -74 39.5 -123t101.5 -49q88 0 120.5 74t43.5 233h-6q-74 -74 -224 -73q-223 0 -339.5 129t-116.5 338zM473 926q0 -94 40 -154.5t101 -60.5 q63 0 102.5 59t39.5 156q0 90 -42 151.5t-106 61.5q-57 0 -96 -58.5t-39 -154.5z" />
<glyph unicode=":" horiz-adv-x="638" d="M129 0v344h381v-344h-381zM129 594v344h381v-344h-381z" />
<glyph unicode=";" horiz-adv-x="638" d="M129 0v340h381v-131q0 -256 -137 -471h-189q72 152 86 262h-141zM129 594v344h381v-344h-381z" />
<glyph unicode="&#x3c;" horiz-adv-x="1429" d="M100 498v262l1227 510v-289l-942 -352l942 -353v-286z" />
<glyph unicode="=" horiz-adv-x="1429" d="M102 233v263h1225v-263h-1225zM102 766v262h1225v-262h-1225z" />
<glyph unicode="&#x3e;" horiz-adv-x="1429" d="M100 -10v289l942 352l-942 352v287l1227 -508v-262z" />
<glyph unicode="?" horiz-adv-x="978" d="M-2 971q12 182 132 305t353 123q209 0 330 -95.5t121 -283.5q0 -47 -14.5 -93t-28.5 -76t-52 -72t-51.5 -55t-63.5 -57t-54 -46q-78 -96 -78 -185h-285q2 111 34 195t122 174q113 113 112 221q0 129 -104 129q-133 0 -141 -184h-332zM260 0v344h381v-344h-381z" />
<glyph unicode="@" horiz-adv-x="1843" d="M119 500q0 168 59.5 327.5t172 293.5t298 216t416.5 82q291 0 476 -155.5t185 -446.5q0 -266 -149.5 -473t-355.5 -207q-92 0 -138.5 48t-46.5 118q0 8 1 23.5t1 19.5h-8q-47 -94 -128 -152.5t-171 -58.5q-121 0 -194.5 93.5t-73.5 238.5q0 233 150.5 420.5t334.5 187.5 q139 0 189 -121h4l41 88h237l-41 -198h-45l-69 -293q-12 -43 -13 -105q0 -70 45 -69q68 0 145 132t77 308q0 199 -121 303.5t-322 104.5q-324 0 -526.5 -213t-202.5 -514q0 -260 166 -400.5t473 -140.5q182 0 322 72l71 -160q-182 -106 -440 -107q-373 0 -596 201t-223 537z M743 489q0 -53 25 -82.5t66 -29.5q100 0 172.5 124t72.5 226q0 145 -98 145q-86 0 -162 -112.5t-76 -270.5z" />
<glyph unicode="A" horiz-adv-x="1337" d="M0 0v295h94l225 770h-118v295h714l334 -1065h88v-295h-596v295h111l-37 131h-352l-33 -131h121v-295h-551zM530 690h211l-106 375h-10z" />
<glyph unicode="B" horiz-adv-x="1255" d="M57 0v295h107v770h-107v295h631q229 0 364.5 -85t135.5 -257q0 -106 -75 -181t-200 -100v-4q139 -23 220 -116t81 -209q0 -180 -146 -294t-368 -114h-643zM561 281h76q168 0 168 151q0 68 -46 102.5t-122 34.5h-76v-288zM567 834h76q150 0 150 120.5t-150 120.5h-76v-241 z" />
<glyph unicode="C" horiz-adv-x="1421" d="M41 684q0 315 172 511t465 196q193 0 336 -113v84h260v-533h-260q-2 94 -69.5 165t-170.5 71q-137 0 -213 -102.5t-76 -280.5q0 -164 71 -275.5t206 -111.5q113 0 175 79t67 175h315q-6 -254 -168 -417t-428 -163q-326 0 -504 199t-178 516z" />
<glyph unicode="D" horiz-adv-x="1447" d="M57 0v295h107v770h-107v295h615q346 0 540.5 -185.5t194.5 -494.5q0 -291 -190.5 -485.5t-532.5 -194.5h-627zM586 295h69q160 0 234 104.5t74 278.5q0 387 -314 387h-63v-770z" />
<glyph unicode="E" horiz-adv-x="1200" d="M57 0v295h107v770h-107v295h1086v-442h-260v147h-297v-227h254v-277h-254v-266h297v188h260v-483h-1086z" />
<glyph unicode="F" horiz-adv-x="1200" d="M57 0v295h107v770h-107v295h1086v-442h-260v147h-297v-248h254v-276h-254v-246h166v-295h-695z" />
<glyph unicode="G" horiz-adv-x="1398" d="M41 664q0 330 177 528.5t460 198.5q231 0 358 -93v62h260v-408h-262q-66 113 -241 113q-143 0 -225.5 -104.5t-82.5 -272.5q0 -197 90.5 -303t239.5 -106q86 0 150 32v197h-226v258h582v-631q-236 -166 -545 -166q-338 0 -536.5 192t-198.5 503z" />
<glyph unicode="H" horiz-adv-x="1443" d="M57 0v295h107v770h-107v295h617v-295h-109v-221h312v221h-109v295h618v-295h-108v-770h108v-295h-618v295h109v256h-312v-256h109v-295h-617z" />
<glyph unicode="I" horiz-adv-x="751" d="M57 0v295h107v770h-107v295h637v-295h-108v-770h108v-295h-637z" />
<glyph unicode="J" horiz-adv-x="710" d="M4 0l2 317q37 -12 80 -12q78 0 78 92v668h-107v295h637v-295h-108v-645q0 -440 -428 -440q-88 0 -154 20z" />
<glyph unicode="K" horiz-adv-x="1394" d="M57 0v295h107v770h-107v295h617v-295h-88v-285l274 285h-88v295h547v-295h-127l-266 -254l321 -516h107v-295h-602v295h88l-174 283l-80 -74v-209h78v-295h-607z" />
<glyph unicode="L" horiz-adv-x="1187" d="M57 0v295h107v770h-107v295h672v-295h-143v-770h297v229h260v-524h-1086z" />
<glyph unicode="M" horiz-adv-x="1693" d="M57 0v295h107v770h-107v295h574l207 -627h4l190 627h604v-295h-100v-770h100v-295h-575v295h106v655h-8q-23 -100 -47 -184l-229 -766h-133l-252 766q-29 92 -47 190h-9v-661h109v-295h-494z" />
<glyph unicode="N" horiz-adv-x="1449" d="M57 0v295h107v770h-107v295h498l375 -617q63 -104 108 -198h6q-14 96 -14 157v363h-106v295h491v-295h-106v-1065h-365l-326 545q-129 213 -182 356h-10q14 -86 14 -162v-444h111l-4 -295h-490z" />
<glyph unicode="O" horiz-adv-x="1464" d="M41 680q0 299 194.5 505t503.5 206q311 0 497.5 -207t186.5 -504q0 -305 -192.5 -508t-499.5 -203q-172 0 -308 63.5t-217 169t-123 227.5t-42 251zM485 680q0 -166 66.5 -275.5t179.5 -109.5q115 0 181.5 109.5t66.5 275.5t-62.5 275.5t-179.5 109.5 q-113 0 -182.5 -110.5t-69.5 -274.5z" />
<glyph unicode="P" horiz-adv-x="1243" d="M57 0v295h107v770h-107v295h574q299 0 435 -125t136 -330q0 -84 -27.5 -158.5t-87 -141t-171 -105.5t-263.5 -39h-88v-166h127v-295h-635zM565 756h72q156 0 156 162q0 147 -166 147h-62v-309z" />
<glyph unicode="Q" horiz-adv-x="1464" d="M41 680q0 295 194.5 503t503.5 208q207 0 366 -101.5t238.5 -258.5t79.5 -339q0 -283 -161.5 -450.5t-395.5 -206.5v-4q86 -6 205 -6q135 0 207 36v-276q-74 -25 -180 -25q-96 0 -265 36t-247 36q-70 0 -162 -15.5t-141 -37.5v201q131 51 256 63v2q-207 47 -352.5 216 t-145.5 419zM485 682q0 -174 66.5 -280.5t179.5 -106.5t180.5 108.5t67.5 278.5q0 168 -63.5 275.5t-178.5 107.5q-111 0 -181.5 -108.5t-70.5 -274.5z" />
<glyph unicode="R" horiz-adv-x="1306" d="M57 0v295h107v770h-107v295h574q281 0 426 -84t145 -283q0 -141 -82 -221t-200 -96v-8q254 -33 254 -265v-108h106v-295h-508v375q0 90 -36 132t-118 42h-53v-254h88v-295h-596zM565 786h72q156 0 156 152q0 137 -166 137h-62v-289z" />
<glyph unicode="S" horiz-adv-x="1089" d="M57 0v471h260v-84q0 -53 55.5 -106.5t145.5 -53.5q70 0 105.5 36t35.5 99q0 55 -35.5 97.5t-142.5 79.5q-217 74 -319.5 174t-102.5 286q0 166 114 279t292 113t280 -93v62h261v-412h-261v49q0 51 -47 92t-112 41q-59 0 -94 -29.5t-35 -82.5q0 -51 42 -88t148 -72 q215 -70 315.5 -177.5t100.5 -277.5q0 -174 -113.5 -304t-308.5 -130q-207 0 -324 111v-80h-260z" />
<glyph unicode="T" horiz-adv-x="1282" d="M45 836v524h1192v-524h-260v229h-125v-770h143v-295h-708v295h143v770h-125v-229h-260z" />
<glyph unicode="U" horiz-adv-x="1343" d="M20 1065v295h637v-295h-108v-598q0 -219 174 -219q109 0 144.5 57t35.5 162v598h-108v295h528v-295h-109v-520q0 -575 -542 -576q-545 0 -545 572v524h-107z" />
<glyph unicode="V" horiz-adv-x="1302" d="M0 1065v295h596v-295h-104l180 -703h10l182 703h-112v295h551v-295h-101l-313 -1065h-510l-287 1065h-92z" />
<glyph unicode="W" horiz-adv-x="1847" d="M0 1065v295h522v-295h-71l124 -594h11l135 594h-72v295h590v-295h-72l125 -594h11l135 594h-72v295h481v-295h-71l-314 -1065h-387l-153 709h-11l-166 -709h-387l-286 1065h-72z" />
<glyph unicode="X" horiz-adv-x="1402" d="M31 0v295h88l307 410l-305 360h-88v295h629v-295h-68l129 -172l106 172h-67v295h567v-295h-88l-291 -385l334 -385h88v-295h-657v295h86l-152 184l-129 -184h86v-295h-575z" />
<glyph unicode="Y" horiz-adv-x="1335" d="M31 1065v295h622v-295h-84l150 -315h6l154 315h-84v295h510v-295h-93l-340 -549v-221h109v-295h-639v295h109v221l-328 549h-92z" />
<glyph unicode="Z" horiz-adv-x="1261" d="M78 0v223l598 842h-301v-160h-260v455h1059v-223l-599 -842h349v197h260v-492h-1106z" />
<glyph unicode="[" horiz-adv-x="616" d="M102 -463v1899h510v-236h-172v-1427h172v-236h-510z" />
<glyph unicode="\" horiz-adv-x="827" d="M18 1421h334l496 -1691h-334z" />
<glyph unicode="]" horiz-adv-x="616" d="M4 -227h172v1427h-172v236h510v-1899h-510v236z" />
<glyph unicode="^" horiz-adv-x="1429" d="M74 537l508 860h262l510 -860h-289l-352 630l-353 -630h-286z" />
<glyph unicode="_" horiz-adv-x="1024" d="M0 -154h1024v-100h-1024v100z" />
<glyph unicode="`" horiz-adv-x="716" d="M12 1350h385l308 -287h-238z" />
<glyph unicode="a" horiz-adv-x="1103" d="M51 274q0 137 95.5 226.5t254.5 89.5q119 0 195 -53v51q0 139 -156 139q-129 0 -252 -43l-45 234q156 49 371 49q133 0 226.5 -27t139.5 -60.5t71.5 -94t29.5 -101.5t4 -106v-320h88v-258h-436l-23 115h-6q-84 -143 -260 -144q-133 0 -215 87t-82 216zM387 317 q0 -45 31 -74.5t78 -29.5t78.5 30.5t31.5 75.5q0 43 -31.5 74t-78.5 31q-45 0 -77 -31t-32 -76z" />
<glyph unicode="b" horiz-adv-x="1206" d="M51 0v258h109v844h-109v258h465v-522h8q94 129 271 129q172 0 271 -151.5t99 -358.5q0 -205 -111.5 -345.5t-281.5 -140.5q-150 0 -254 144h-8l-23 -115h-436zM508 465q0 -92 37 -142.5t102 -50.5q70 0 110 59.5t40 137.5q0 86 -37 144.5t-111 58.5q-57 0 -99 -56.5 t-42 -150.5z" />
<glyph unicode="c" horiz-adv-x="1021" d="M41 477q0 197 110.5 343.5t321.5 146.5q158 0 240 -86v57h223v-369h-223q-12 47 -53.5 76t-88.5 29q-84 0 -122.5 -59.5t-38.5 -141.5q0 -84 42 -141.5t121 -57.5q100 0 129 121h267q-18 -180 -127 -302t-322 -122q-201 0 -340 139.5t-139 366.5z" />
<glyph unicode="d" horiz-adv-x="1185" d="M41 457q0 207 108.5 358.5t299.5 151.5q172 0 233 -129h8v264h-108v258h465v-1102h108v-258h-436l-23 115h-8q-106 -143 -268 -144q-164 0 -271.5 136.5t-107.5 349.5zM410 469q0 -80 35.5 -138.5t111.5 -58.5q61 0 101 51.5t40 141.5q0 96 -38.5 151.5t-100.5 55.5 q-70 0 -109.5 -60.5t-39.5 -142.5z" />
<glyph unicode="e" horiz-adv-x="1071" d="M41 471q0 215 135 355.5t377 140.5q193 0 335 -128t142 -368q0 -33 -6 -74h-616q2 -90 43 -135t98 -45q47 0 81 25.5t44 68.5h344q-102 -340 -477 -340q-213 0 -356.5 134.5t-143.5 365.5zM408 598h249q-4 66 -33.5 109t-86.5 43q-53 0 -89 -46.5t-40 -105.5z" />
<glyph unicode="f" horiz-adv-x="753" d="M61 0v258h109v422h-109v258h109v63q0 168 96 263.5t287 95.5h180v-258h-90q-41 0 -67.5 -29t-26.5 -76v-59h143v-258h-143v-422h143v-258h-631z" />
<glyph unicode="g" horiz-adv-x="1175" d="M41 477q0 213 105.5 351.5t275.5 138.5q180 0 268 -140h10l21 111h434v-258h-108v-520q0 -266 -146.5 -397.5t-413.5 -131.5q-176 0 -317 43l45 232q119 -27 246 -27q123 0 183.5 63.5t60.5 172.5v35h-9q-121 -115 -264 -115q-166 0 -278.5 104.5t-112.5 337.5zM410 469 q0 -78 38.5 -134t110.5 -56q66 0 102.5 48t36.5 138q0 94 -42 150.5t-99 56.5q-74 0 -110.5 -58.5t-36.5 -144.5z" />
<glyph unicode="h" horiz-adv-x="1288" d="M51 0v258h109v844h-109v258h488v-541h10q39 66 108.5 107t149.5 41q342 0 342 -437v-272h108v-258h-487v508q0 131 -108 131q-49 0 -86 -39t-37 -106v-236h108v-258h-596z" />
<glyph unicode="i" horiz-adv-x="688" d="M61 0v258h109v422h-109v258h488v-680h108v-258h-596zM139 1051v311h389v-311h-389z" />
<glyph unicode="j" horiz-adv-x="585" d="M-14 -43h24q119 0 119 182v541h-109v258h488v-915q0 -358 -447 -359h-75v293zM98 1051v309h389v-309h-389z" />
<glyph unicode="k" horiz-adv-x="1206" d="M51 0v258h109v844h-109v258h488v-844l178 164h-84v258h522v-258h-108l-160 -148l180 -274h109v-258h-357l-280 487v-229h73v-258h-561z" />
<glyph unicode="l" horiz-adv-x="677" d="M51 0v258h109v844h-109v258h488v-1102h108v-258h-596z" />
<glyph unicode="m" horiz-adv-x="1757" d="M61 0v258h78v422h-78v258h428l21 -115h8q57 74 111.5 109t138.5 35q178 0 256 -138h4q61 72 120.5 105t154.5 33q350 0 350 -432v-277h76v-258h-455v512q0 63 -24.5 97t-63.5 34q-37 0 -68 -36t-33 -97v-252h78v-258h-456v512q0 131 -89 131q-39 0 -69.5 -39t-30.5 -106 v-240h78v-258h-535z" />
<glyph unicode="n" horiz-adv-x="1298" d="M61 0v258h109v422h-109v258h457l23 -115h8q63 76 121.5 110t146.5 34q342 0 342 -432v-277h109v-258h-488v512q0 131 -108 131q-49 0 -86 -39t-37 -106v-240h108v-258h-596z" />
<glyph unicode="o" horiz-adv-x="1081" d="M41 469q0 217 141.5 357.5t358.5 140.5q221 0 360 -141.5t139 -356.5q0 -209 -141 -353.5t-358 -144.5t-358.5 141.5t-141.5 356.5zM401 469q0 -84 36 -134t103.5 -50t102.5 51t35 133q0 84 -34 134t-103.5 50t-104.5 -50t-35 -134z" />
<glyph unicode="p" horiz-adv-x="1196" d="M41 -78h109v758h-109v258h436l23 -115h8q98 143 268 144q162 0 270.5 -134.5t108.5 -353.5q0 -217 -113.5 -362.5t-293.5 -145.5q-170 0 -234 129h-8v-178h108v-258h-573v258zM498 473q0 -94 37.5 -145.5t101.5 -51.5q72 0 110.5 56.5t38.5 136.5q0 82 -36.5 136 t-110.5 54q-61 0 -101 -49t-40 -137z" />
<glyph unicode="q" horiz-adv-x="1196" d="M41 481q0 215 115.5 350.5t277.5 135.5q147 0 254 -144h8l23 115h436v-258h-108v-758h108v-258h-573v258h108v189h-8q-96 -139 -270 -140q-164 0 -267.5 145.5t-103.5 364.5zM410 469q0 -84 35.5 -138.5t111.5 -54.5q59 0 100 54.5t41 142.5q0 90 -37.5 138t-101.5 48 q-70 0 -109.5 -55t-39.5 -135z" />
<glyph unicode="r" horiz-adv-x="915" d="M51 0v258h109v422h-109v258h449l32 -156h9q94 176 264 176q43 0 80 -6v-338q-53 16 -142 17q-111 0 -157.5 -57.5t-46.5 -143.5v-172h108v-258h-596z" />
<glyph unicode="s" horiz-adv-x="888" d="M63 0v326h201v-21q0 -49 45 -80.5t109 -31.5q49 0 73.5 22.5t24.5 50.5q0 57 -125 86q-166 39 -243.5 116t-77.5 210q0 121 84 205t213 84q141 0 233 -93v64h197v-287h-197v21q0 31 -27.5 54.5t-76.5 23.5q-80 0 -80 -56q0 -29 30.5 -49t116.5 -41q295 -72 295 -313 q0 -131 -84 -225.5t-239 -94.5q-141 0 -271 97v-68h-201z" />
<glyph unicode="t" horiz-adv-x="710" d="M20 680v258h103v295h379v-295h149v-258h-149v-322q0 -35 4 -53t23.5 -32.5t58.5 -14.5h71v-258h-170q-182 0 -274 79t-92 255v346h-103z" />
<glyph unicode="u" horiz-adv-x="1247" d="M31 680v258h487v-508q0 -129 98 -129q53 0 83 38t30 107v234h-108v258h487v-680h109v-258h-457l-23 115h-8q-111 -143 -266 -144q-324 0 -324 437v272h-108z" />
<glyph unicode="v" horiz-adv-x="1015" d="M0 680v258h467v-258h-43l104 -291h9l114 291h-45v258h410v-258h-88l-256 -680h-328l-256 680h-88z" />
<glyph unicode="w" horiz-adv-x="1466" d="M0 680v258h438v-258h-43l97 -291h8l94 291h-45v258h426v-258h-43l96 -291h8l94 291h-45v258h381v-258h-67l-236 -680h-291l-133 356h-2l-123 -356h-290l-256 680h-68z" />
<glyph unicode="x" horiz-adv-x="1171" d="M31 0v258h90l254 225l-230 197h-90v258h539v-258h-76l131 -131l113 131h-76v258h430v-258h-90l-223 -217l248 -205h90v-258h-555v258h86l-133 127l-121 -127h86v-258h-473z" />
<glyph unicode="y" horiz-adv-x="1015" d="M0 680v258h467v-258h-43l111 -311h8l108 311h-45v258h410v-258h-88l-256 -682q-61 -164 -167 -249t-290 -85h-94v258h94q109 0 135 74l10 33l-272 651h-88z" />
<glyph unicode="z" horiz-adv-x="1036" d="M68 0v197l481 526h-225v-150h-224v365h865v-197l-484 -526h264v166h224v-381h-901z" />
<glyph unicode="{" horiz-adv-x="735" d="M16 375v221q102 0 145.5 40t43.5 130v364q0 152 95 242t290 90h115v-223h-58q-66 0 -94.5 -27.5t-28.5 -87.5v-387q0 -104 -43 -166.5t-157 -85.5v-4q201 -31 200 -258v-366q0 -70 29 -100.5t94 -30.5h58v-224h-115q-385 0 -385 367v336q0 86 -44.5 128t-144.5 42z" />
<glyph unicode="|" horiz-adv-x="735" d="M203 -549v2269h327v-2269h-327z" />
<glyph unicode="}" horiz-adv-x="735" d="M31 -274h57q66 0 94.5 30.5t28.5 100.5v366q0 227 201 258v4q-115 23 -158 85.5t-43 166.5v387q0 59 -28.5 87t-94.5 28h-57v223h114q195 0 290 -90t95 -242v-364q0 -90 43 -130t146 -40v-221q-100 0 -144.5 -42t-44.5 -128v-336q0 -367 -385 -367h-114v224z" />
<glyph unicode="~" horiz-adv-x="1429" d="M51 516q80 174 169 267.5t235 93.5q88 0 181 -49.5t179 -98.5t156 -49q94 0 170 188l235 -116q-82 -188 -176 -272.5t-225 -84.5q-90 0 -186.5 48.5t-177.5 96.5t-132 48q-63 0 -107 -47t-85 -140z" />
<glyph unicode="&#xa1;" horiz-adv-x="638" d="M129 594v344h381v-344h-381zM133 -98l74 532h225l78 -532v-326h-377v326z" />
<glyph unicode="&#xa2;" d="M119 664q0 182 95 312t271 161v223h236v-240q47 -18 86 -49v78h235v-358h-256q0 51 -40.5 84.5t-98.5 33.5q-82 0 -128 -60.5t-46 -168.5q0 -106 44 -171t122 -65q66 0 101.5 39t37.5 97h299q-4 -152 -99 -259.5t-257 -132.5v-188h-236v197q-166 39 -266 161t-100 306z " />
<glyph unicode="&#xa3;" d="M94 -31v301q184 57 185 195q0 55 -23 117h-162v249h111q-16 102 -17 162q0 176 114 291t329 115q186 0 307 -103.5t133 -310.5h-342q-16 158 -100 158q-47 0 -74 -43t-27 -115q0 -66 19 -154h364v-249h-323q16 -59 16 -115q0 -127 -119 -197q10 2 35 2q78 0 137 -16 q74 -25 101 -25q100 0 100 187h275q0 -229 -67 -339t-271 -110q-70 0 -209 41q-106 31 -217 31q-142 0 -275 -72z" />
<glyph unicode="&#xa4;" d="M45 291l145 137q-59 109 -59 225q0 119 59 226l-145 139l176 178l148 -141q102 59 229 59t231 -59l146 141l178 -178l-145 -139q59 -106 59 -226q0 -117 -59 -225l145 -137l-178 -178l-146 141q-104 -59 -231 -59q-125 0 -229 59l-148 -141zM383 655q0 -88 62.5 -149.5 t152.5 -61.5t153.5 61.5t63.5 149.5t-65.5 148.5t-151.5 60.5q-90 0 -152.5 -60.5t-62.5 -148.5z" />
<glyph unicode="&#xa5;" d="M0 1085v275h592v-275h-98l172 -294h4l149 294h-98v275h477v-275h-98l-191 -292h193v-162h-293v-92h293v-162h-293v-137h109v-240h-637v240h108v137h-293v162h291v92h-291v162h199l-197 292h-98z" />
<glyph unicode="&#xa6;" horiz-adv-x="735" d="M203 373h327v-922h-327v922zM203 807v913h327v-913h-327z" />
<glyph unicode="&#xa7;" horiz-adv-x="989" d="M96 0v399h213v-94q96 -92 189 -92q39 0 61.5 22.5t22.5 59.5q0 80 -133 115q-170 43 -254 111.5t-84 199.5q0 137 108 201q-106 59 -106 211q0 111 80.5 184.5t216.5 73.5q82 0 148.5 -29t98.5 -64v72h213v-358h-213v98q-61 55 -145 55q-37 0 -58.5 -17.5t-21.5 -45.5 q0 -39 36 -61.5t128 -49.5q182 -49 247.5 -123.5t65.5 -177.5q0 -70 -22.5 -112.5t-67.5 -88.5q90 -80 90 -210q0 -127 -86 -218.5t-231 -91.5q-174 0 -283 105v-74h-213zM356 745q0 -70 136 -116q72 -23 159 -39q0 2 5.5 12t9.5 23.5t4 29.5q0 88 -138 129q-37 10 -89 23.5 t-58 15.5q-29 -25 -29 -78z" />
<glyph unicode="&#xa8;" horiz-adv-x="716" d="M12 1069v274h269v-274h-269zM436 1069v274h269v-274h-269z" />
<glyph unicode="&#xa9;" horiz-adv-x="1601" d="M70 690q0 305 214 517t517 212q305 0 518 -212t213 -517q0 -303 -213 -515t-518 -212q-303 0 -517 212t-214 515zM252 690.5q0 -229.5 161.5 -393.5t387.5 -164q229 0 390 163t161 394.5t-161 394t-390 162.5q-225 0 -387 -163.5t-162 -393zM422 700.5q0 178.5 99.5 288 t266.5 109.5q119 0 195 -64v49h152v-299h-152v2q-2 55 -41 97.5t-96 42.5q-80 0 -124 -61.5t-44 -166.5q0 -96 42 -161.5t120 -65.5q66 0 101.5 47t35.5 107h184q-4 -143 -98 -235.5t-246 -92.5q-188 0 -291.5 112.5t-103.5 291z" />
<glyph unicode="&#xaa;" horiz-adv-x="882" d="M57 942q0 84 74 138.5t201 54.5q88 0 133 -31v24q0 84 -115 84q-104 0 -190 -24l-33 141q117 31 279 31q182 0 256.5 -58.5t74.5 -179.5v-192h68v-158h-309l-17 72h-4q-57 -84 -186 -84q-102 0 -167 52t-65 130zM311 969q0 -29 22.5 -47.5t57.5 -18.5q37 0 59.5 18.5 t22.5 47.5q0 27 -22.5 45t-59.5 18q-33 0 -56.5 -18t-23.5 -45z" />
<glyph unicode="&#xab;" horiz-adv-x="1101" d="M102 459l240 381h233l-180 -375l183 -375h-236zM518 459l240 381h239l-186 -375l188 -375h-241z" />
<glyph unicode="&#xac;" horiz-adv-x="1429" d="M102 500v262h1225v-752h-262v490h-963z" />
<glyph unicode="&#xad;" horiz-adv-x="688" d="M61 500v262h566v-262h-566z" />
<glyph unicode="&#xae;" horiz-adv-x="1189" d="M102 899q0 205 144.5 348.5t347.5 143.5q207 0 350 -143.5t143 -348.5t-143 -347t-350 -142q-203 0 -347.5 143t-144.5 346zM223 899q0 -156 109.5 -266.5t261.5 -110.5q156 0 264.5 110.5t108.5 266.5q0 158 -108.5 267.5t-264.5 109.5q-152 0 -261.5 -110.5 t-109.5 -266.5zM377 664v106h41v287h-41v106h209q231 0 231 -151q0 -94 -86 -129l74 -113h41v-106h-129l-111 196h-55v-90h43v-106h-217zM551 946h51q68 0 68 62q0 63 -74 63h-45v-125z" />
<glyph unicode="&#xaf;" horiz-adv-x="495" d="M-331 123v182h665v-182h-665z" />
<glyph unicode="&#xb0;" horiz-adv-x="737" d="M43 1077q0 133 93 227.5t226.5 94.5t227.5 -94.5t94 -227.5t-94 -226t-227.5 -93t-226.5 93t-93 226zM219 1077q0 -59 42 -101t101 -42q61 0 103.5 42t42.5 101q0 61 -42 103.5t-104 42.5q-59 0 -101 -42.5t-42 -103.5z" />
<glyph unicode="&#xb1;" horiz-adv-x="1429" d="M102 0v262h1225v-262h-1225zM102 725v262h482v377h262v-377h481v-262h-481v-377h-262v377h-482z" />
<glyph unicode="&#xb2;" horiz-adv-x="696" d="M49 545v188l260 250q78 74 78 162q0 74 -53 74q-61 0 -62 -146h-217q-2 127 76 222.5t227 95.5q137 0 209 -68t72 -164q0 -150 -170 -270l-188 -133h213v98h151v-309h-596z" />
<glyph unicode="&#xb3;" horiz-adv-x="696" d="M12 813h215q-2 -106 90 -106q90 0 91 100q0 102 -121 102h-54v148h54q96 0 96 84q0 78 -64 78q-66 0 -65 -103h-215q-2 129 87 202t218 73q133 0 223 -54.5t90 -181.5q0 -68 -46 -113t-103 -59v-4q174 -49 174 -209q0 -100 -88 -173t-252 -73q-320 0 -330 289z" />
<glyph unicode="&#xb4;" horiz-adv-x="716" d="M12 1063l307 287h386l-455 -287h-238z" />
<glyph unicode="&#xb5;" horiz-adv-x="1247" d="M33 680v258h485v-506q0 -63 26.5 -97t71.5 -34q51 0 82 38t31 107v234h-108v258h487v-680h109v-258h-457l-17 82h-4q-45 -109 -149 -109q-53 0 -94 21l-4 -2q8 -119 8 -209v-119h-361v1016h-106z" />
<glyph unicode="&#xb6;" horiz-adv-x="1118" d="M61 936q0 424 461 424h559v-225h-127v-1246h125v-225h-350v1471h-86v-1471h-352v225h127v693q-162 0 -259.5 98t-97.5 256z" />
<glyph unicode="&#xb8;" horiz-adv-x="716" d="M158 -248h65q102 0 103 66q0 68 -105 67h-33l60 125h170l-45 -84q80 -4 132 -38.5t52 -100.5q0 -156 -270 -156h-129v121z" />
<glyph unicode="&#xb9;" horiz-adv-x="696" d="M100 545v172h107v471h-107v172h389v-643h107v-172h-496z" />
<glyph unicode="&#xba;" horiz-adv-x="909" d="M57 1055q0 133 113 219t285 86q174 0 285.5 -87t111.5 -218q0 -129 -112.5 -218t-284.5 -89t-285 88t-113 219zM344 1053q0 -51 28.5 -83t82 -32t81 33t27.5 82q0 117 -108 116q-111 1 -111 -116z" />
<glyph unicode="&#xbb;" horiz-adv-x="1101" d="M102 840h242l240 -369l-240 -381h-240l187 375zM524 840h236l239 -369l-239 -381h-234l181 375z" />
<glyph unicode="&#xbc;" horiz-adv-x="1525" d="M53 545v172h107v471h-107v172h389v-643h107v-172h-496zM295 0l713 1360h247l-712 -1360h-248zM831 236v122l322 457h268v-455h101v-124h-101v-91h66v-145h-408v145h101v91h-349zM985 360h195v281h-4z" />
<glyph unicode="&#xbd;" horiz-adv-x="1566" d="M53 545v172h107v471h-107v172h389v-643h107v-172h-496zM295 0l713 1360h247l-712 -1360h-248zM920 0v188l260 250q78 74 77 162q0 74 -53 74q-61 0 -61 -146h-217q-2 127 75.5 222.5t227.5 95.5q137 0 208.5 -67.5t71.5 -164.5q0 -150 -170 -270l-188 -133h213v98h152 v-309h-596z" />
<glyph unicode="&#xbe;" horiz-adv-x="1587" d="M10 813h215q-2 -106 90 -106q90 0 91 100q0 102 -121 102h-54v148h54q96 0 96 84q0 78 -64 78q-66 0 -65 -103h-215q-2 129 87 202t218 73q133 0 223 -54.5t90 -181.5q0 -68 -46 -113t-103 -59v-4q174 -49 174 -209q0 -100 -88 -173t-252 -73q-320 0 -330 289zM358 0 l713 1360h248l-713 -1360h-248zM893 236v122l321 457h269v-455h100v-124h-100v-91h65v-145h-407v145h100v91h-348zM1047 360h194v281h-4z" />
<glyph unicode="&#xbf;" horiz-adv-x="978" d="M-2 -82q0 47 14.5 93t28.5 76t52 72t51.5 55t63.5 57t54 46q78 96 78 185h285q-2 -111 -34 -195t-122 -174q-113 -113 -113 -221q0 -129 105 -129q133 0 141 184h332q-12 -182 -132 -305t-353 -123q-209 0 -330 95.5t-121 283.5zM291 594v344h381v-344h-381z" />
<glyph unicode="&#xc0;" horiz-adv-x="1337" d="M0 0v295h94l225 770h-118v295h714l334 -1065h88v-295h-596v295h111l-37 131h-352l-33 -131h121v-295h-551zM229 1729h385l308 -287h-238zM530 690h211l-106 375h-10z" />
<glyph unicode="&#xc1;" horiz-adv-x="1337" d="M0 0v295h94l225 770h-118v295h714l334 -1065h88v-295h-596v295h111l-37 131h-352l-33 -131h121v-295h-551zM414 1442l307 287h385l-455 -287h-237zM530 690h211l-106 375h-10z" />
<glyph unicode="&#xc2;" horiz-adv-x="1337" d="M0 0v295h94l225 770h-118v295h714l334 -1065h88v-295h-596v295h111l-37 131h-352l-33 -131h121v-295h-551zM268 1444l361 336l360 -336h-246l-114 100l-115 -100h-246zM530 690h211l-106 375h-10z" />
<glyph unicode="&#xc3;" horiz-adv-x="1337" d="M0 0v295h94l225 770h-118v295h714l334 -1065h88v-295h-596v295h111l-37 131h-352l-33 -131h121v-295h-551zM236 1452q0 123 56 204t165 81q70 0 170 -41t131 -41q61 0 61 78h172q0 -285 -221 -285q-70 0 -170 41t-131 41q-61 0 -61 -78h-172zM530 690h211l-106 375h-10z " />
<glyph unicode="&#xc4;" horiz-adv-x="1337" d="M0 0v295h94l225 770h-118v295h714l334 -1065h88v-295h-596v295h111l-37 131h-352l-33 -131h121v-295h-551zM281 1491v274h268v-274h-268zM530 690h211l-106 375h-10zM705 1491v274h268v-274h-268z" />
<glyph unicode="&#xc5;" horiz-adv-x="1337" d="M0 0v295h94l225 770h-118v295h714l334 -1065h88v-295h-596v295h111l-37 131h-352l-33 -131h121v-295h-551zM385 1646.5q0 98.5 67.5 165t174 66.5t175 -67.5t68.5 -164t-68.5 -164t-175 -67.5t-174 66.5t-67.5 165zM530 690h211l-106 375h-10zM530 1647q0 -41 27 -72 t70 -31q45 0 71.5 31t26.5 72t-26.5 71.5t-71.5 30.5q-43 0 -70 -30.5t-27 -71.5z" />
<glyph unicode="&#xc6;" horiz-adv-x="1859" d="M0 0v295h94l348 770h-118v295h1458v-442h-260v147h-248v-227h205v-277h-205v-266h248v188h260v-483h-1024v295h114v131h-368l-53 -131h100v-295h-551zM618 690h254v375h-90z" />
<glyph unicode="&#xc7;" horiz-adv-x="1421" d="M41 684q0 315 172 511t465 196q193 0 336 -113v84h260v-533h-260q-2 94 -69.5 165t-170.5 71q-137 0 -213 -102.5t-76 -280.5q0 -164 71 -275.5t206 -111.5q113 0 175 79t67 175h315q-6 -238 -150.5 -396.5t-384.5 -179.5l-24 -47q80 -4 132 -38.5t52 -100.5 q0 -156 -270 -156h-129v121h65q102 0 103 66q0 68 -105 67h-33l43 90q-276 31 -426.5 224.5t-150.5 484.5z" />
<glyph unicode="&#xc8;" horiz-adv-x="1200" d="M57 0v295h107v770h-107v295h1086v-442h-260v147h-297v-227h254v-277h-254v-266h297v188h260v-483h-1086zM119 1729h385l307 -287h-238z" />
<glyph unicode="&#xc9;" horiz-adv-x="1200" d="M57 0v295h107v770h-107v295h1086v-442h-260v147h-297v-227h254v-277h-254v-266h297v188h260v-483h-1086zM428 1444l307 287h385l-454 -287h-238z" />
<glyph unicode="&#xca;" horiz-adv-x="1200" d="M57 0v295h107v770h-107v295h1086v-442h-260v147h-297v-227h254v-277h-254v-266h297v188h260v-483h-1086zM270 1444l361 336l360 -336h-246l-114 100l-115 -100h-246z" />
<glyph unicode="&#xcb;" horiz-adv-x="1200" d="M57 0v295h107v770h-107v295h1086v-442h-260v147h-297v-227h254v-277h-254v-266h297v188h260v-483h-1086zM287 1448v274h268v-274h-268zM711 1448v274h268v-274h-268z" />
<glyph unicode="&#xcc;" horiz-adv-x="751" d="M-63 1729h385l307 -287h-238zM57 0v295h107v770h-107v295h637v-295h-108v-770h108v-295h-637z" />
<glyph unicode="&#xcd;" horiz-adv-x="751" d="M57 0v295h107v770h-107v295h637v-295h-108v-770h108v-295h-637zM123 1442l307 287h385l-455 -287h-237z" />
<glyph unicode="&#xce;" horiz-adv-x="751" d="M14 1444l361 336l360 -336h-246l-114 100l-115 -100h-246zM57 0v295h107v770h-107v295h637v-295h-108v-770h108v-295h-637z" />
<glyph unicode="&#xcf;" horiz-adv-x="751" d="M29 1448v274h268v-274h-268zM57 0v295h107v770h-107v295h637v-295h-108v-770h108v-295h-637zM453 1448v274h268v-274h-268z" />
<glyph unicode="&#xd0;" horiz-adv-x="1447" d="M57 0v295h107v256h-107v293h107v221h-107v295h615q358 0 546.5 -191.5t188.5 -488.5q0 -291 -189.5 -485.5t-535.5 -194.5h-625zM586 295h69q162 0 235 106.5t73 278.5q0 385 -306 385h-71v-221h178v-293h-178v-256z" />
<glyph unicode="&#xd1;" horiz-adv-x="1449" d="M57 0v295h107v770h-107v295h498l375 -617q63 -104 108 -198h6q-14 96 -14 157v363h-106v295h491v-295h-106v-1065h-365l-326 545q-129 213 -182 356h-10q14 -86 14 -162v-444h111l-4 -295h-490zM367 1454q0 123 56 204t165 81q70 0 170 -41t131 -41q61 0 61 78h172 q0 -285 -221 -285q-70 0 -170 41t-131 41q-61 0 -61 -78h-172z" />
<glyph unicode="&#xd2;" horiz-adv-x="1464" d="M41 680q0 299 194.5 505t503.5 206q311 0 497.5 -207t186.5 -504q0 -305 -192.5 -508t-499.5 -203q-172 0 -308 63.5t-217 169t-123 227.5t-42 251zM252 1729h385l307 -287h-237zM485 680q0 -166 66.5 -275.5t179.5 -109.5q115 0 181.5 109.5t66.5 275.5t-62.5 275.5 t-179.5 109.5q-113 0 -182.5 -110.5t-69.5 -274.5z" />
<glyph unicode="&#xd3;" horiz-adv-x="1464" d="M41 680q0 299 194.5 505t503.5 206q311 0 497.5 -207t186.5 -504q0 -305 -192.5 -508t-499.5 -203q-172 0 -308 63.5t-217 169t-123 227.5t-42 251zM485 680q0 -166 66.5 -275.5t179.5 -109.5q115 0 181.5 109.5t66.5 275.5t-62.5 275.5t-179.5 109.5 q-113 0 -182.5 -110.5t-69.5 -274.5zM518 1442l307 287h385l-454 -287h-238z" />
<glyph unicode="&#xd4;" horiz-adv-x="1464" d="M41 680q0 299 194.5 505t503.5 206q311 0 497.5 -207t186.5 -504q0 -305 -192.5 -508t-499.5 -203q-172 0 -308 63.5t-217 169t-123 227.5t-42 251zM371 1444l360 336l361 -336h-246l-115 100l-115 -100h-245zM485 680q0 -166 66.5 -275.5t179.5 -109.5 q115 0 181.5 109.5t66.5 275.5t-62.5 275.5t-179.5 109.5q-113 0 -182.5 -110.5t-69.5 -274.5z" />
<glyph unicode="&#xd5;" horiz-adv-x="1464" d="M41 680q0 299 194.5 505t503.5 206q311 0 497.5 -207t186.5 -504q0 -305 -192.5 -508t-499.5 -203q-172 0 -308 63.5t-217 169t-123 227.5t-42 251zM354 1452q0 123 56.5 204t164.5 81q70 0 170.5 -41t131.5 -41q61 0 61 78h172q0 -285 -221 -285q-70 0 -170.5 41 t-130.5 41q-61 0 -62 -78h-172zM485 680q0 -166 66.5 -275.5t179.5 -109.5q115 0 181.5 109.5t66.5 275.5t-62.5 275.5t-179.5 109.5q-113 0 -182.5 -110.5t-69.5 -274.5z" />
<glyph unicode="&#xd6;" horiz-adv-x="1464" d="M41 680q0 299 194.5 505t503.5 206q311 0 497.5 -207t186.5 -504q0 -305 -192.5 -508t-499.5 -203q-172 0 -308 63.5t-217 169t-123 227.5t-42 251zM385 1448v274h268v-274h-268zM485 680q0 -166 66.5 -275.5t179.5 -109.5q115 0 181.5 109.5t66.5 275.5t-62.5 275.5 t-179.5 109.5q-113 0 -182.5 -110.5t-69.5 -274.5zM809 1448v274h268v-274h-268z" />
<glyph unicode="&#xd7;" horiz-adv-x="1429" d="M119 1042l184 185l412 -410l397 397l186 -186l-397 -397l410 -412l-185 -184l-411 409l-398 -397l-186 186l397 398z" />
<glyph unicode="&#xd8;" horiz-adv-x="1464" d="M41 678q0 299 194.5 506t503.5 207q184 0 342 -84l80 104h264l-178 -237q176 -201 176 -496q0 -305 -192.5 -507t-499.5 -202q-188 0 -342 82l-82 -106h-264l180 237q-182 203 -182 496zM436 678q0 -106 25 -186l434 567q-72 55 -158 55q-135 0 -218 -125t-83 -311z M573 295q68 -49 158 -49q137 0 217 123t80 309q0 100 -22 182z" />
<glyph unicode="&#xd9;" horiz-adv-x="1343" d="M20 1065v295h637v-295h-108v-598q0 -219 174 -219q109 0 144.5 57t35.5 162v598h-108v295h528v-295h-109v-520q0 -575 -542 -576q-545 0 -545 572v524h-107zM180 1729h385l307 -287h-237z" />
<glyph unicode="&#xda;" horiz-adv-x="1343" d="M20 1065v295h637v-295h-108v-598q0 -219 174 -219q109 0 144.5 57t35.5 162v598h-108v295h528v-295h-109v-520q0 -575 -542 -576q-545 0 -545 572v524h-107zM494 1442l307 287h385l-455 -287h-237z" />
<glyph unicode="&#xdb;" horiz-adv-x="1343" d="M20 1065v295h637v-295h-108v-598q0 -219 174 -219q109 0 144.5 57t35.5 162v598h-108v295h528v-295h-109v-520q0 -575 -542 -576q-545 0 -545 572v524h-107zM362 1444l361 336l360 -336h-245l-115 100l-115 -100h-246z" />
<glyph unicode="&#xdc;" horiz-adv-x="1343" d="M20 1065v295h637v-295h-108v-598q0 -219 174 -219q109 0 144.5 57t35.5 162v598h-108v295h528v-295h-109v-520q0 -575 -542 -576q-545 0 -545 572v524h-107zM373 1448v274h268v-274h-268zM797 1448v274h268v-274h-268z" />
<glyph unicode="&#xdd;" horiz-adv-x="1335" d="M31 1065v295h622v-295h-84l150 -315h6l154 315h-84v295h510v-295h-93l-340 -549v-221h109v-295h-639v295h109v221l-328 549h-92zM414 1442l307 287h385l-455 -287h-237z" />
<glyph unicode="&#xde;" horiz-adv-x="1243" d="M57 0v295h107v770h-107v295h508v-199h66q299 0 435 -125t136 -329q0 -84 -27.5 -159t-87 -141.5t-171 -105.5t-263.5 -39h-88v-262h-508zM565 557h72q156 0 156 162q0 147 -166 147h-62v-309z" />
<glyph unicode="&#xdf;" horiz-adv-x="1251" d="M61 0v258h109v422h-109v258h109v53q0 188 125 294t358 106q221 0 349 -94.5t128 -272.5q0 -88 -47 -158.5t-135 -107.5v-4q123 -41 192.5 -121t69.5 -227q0 -193 -121.5 -299.5t-367.5 -106.5h-92v258h35q66 0 101.5 45t35.5 119q0 70 -45 117t-127 47v258q106 0 106 172 q0 141 -88 141q-98 0 -98 -180v-977h-488z" />
<glyph unicode="&#xe0;" horiz-adv-x="1103" d="M51 274q0 137 95.5 226.5t254.5 89.5q119 0 195 -53v51q0 139 -156 139q-129 0 -252 -43l-45 234q156 49 371 49q133 0 226.5 -27t139.5 -60.5t71.5 -94t29.5 -101.5t4 -106v-320h88v-258h-436l-23 115h-6q-84 -143 -260 -144q-133 0 -215 87t-82 216zM51 1350h385 l307 -287h-237zM387 317q0 -45 31 -74.5t78 -29.5t78.5 30.5t31.5 75.5q0 43 -31.5 74t-78.5 31q-45 0 -77 -31t-32 -76z" />
<glyph unicode="&#xe1;" horiz-adv-x="1103" d="M51 274q0 137 95.5 226.5t254.5 89.5q119 0 195 -53v51q0 139 -156 139q-129 0 -252 -43l-45 234q156 49 371 49q133 0 226.5 -27t139.5 -60.5t71.5 -94t29.5 -101.5t4 -106v-320h88v-258h-436l-23 115h-6q-84 -143 -260 -144q-133 0 -215 87t-82 216zM338 1063l307 287 h385l-455 -287h-237zM387 317q0 -45 31 -74.5t78 -29.5t78.5 30.5t31.5 75.5q0 43 -31.5 74t-78.5 31q-45 0 -77 -31t-32 -76z" />
<glyph unicode="&#xe2;" horiz-adv-x="1103" d="M51 274q0 137 95.5 226.5t254.5 89.5q119 0 195 -53v51q0 139 -156 139q-129 0 -252 -43l-45 234q156 49 371 49q133 0 226.5 -27t139.5 -60.5t71.5 -94t29.5 -101.5t4 -106v-320h88v-258h-436l-23 115h-6q-84 -143 -260 -144q-133 0 -215 87t-82 216zM160 1065l360 336 l361 -336h-246l-115 100l-114 -100h-246zM387 317q0 -45 31 -74.5t78 -29.5t78.5 30.5t31.5 75.5q0 43 -31.5 74t-78.5 31q-45 0 -77 -31t-32 -76z" />
<glyph unicode="&#xe3;" horiz-adv-x="1103" d="M51 274q0 137 95.5 226.5t254.5 89.5q119 0 195 -53v51q0 139 -156 139q-129 0 -252 -43l-45 234q156 49 371 49q133 0 226.5 -27t139.5 -60.5t71.5 -94t29.5 -101.5t4 -106v-320h88v-258h-436l-23 115h-6q-84 -143 -260 -144q-133 0 -215 87t-82 216zM143 1073 q0 123 56.5 204t165.5 81q70 0 170 -41t131 -41q61 0 61 78h172q0 -285 -221 -285q-70 0 -170 41t-131 41q-61 0 -62 -78h-172zM387 317q0 -45 31 -74.5t78 -29.5t78.5 30.5t31.5 75.5q0 43 -31.5 74t-78.5 31q-45 0 -77 -31t-32 -76z" />
<glyph unicode="&#xe4;" horiz-adv-x="1103" d="M51 274q0 137 95.5 226.5t254.5 89.5q119 0 195 -53v51q0 139 -156 139q-129 0 -252 -43l-45 234q156 49 371 49q133 0 226.5 -27t139.5 -60.5t71.5 -94t29.5 -101.5t4 -106v-320h88v-258h-436l-23 115h-6q-84 -143 -260 -144q-133 0 -215 87t-82 216zM184 1069v274h269 v-274h-269zM387 317q0 -45 31 -74.5t78 -29.5t78.5 30.5t31.5 75.5q0 43 -31.5 74t-78.5 31q-45 0 -77 -31t-32 -76zM608 1069v274h269v-274h-269z" />
<glyph unicode="&#xe5;" horiz-adv-x="1103" d="M51 274q0 137 95.5 226.5t254.5 89.5q119 0 195 -53v51q0 139 -156 139q-129 0 -252 -43l-45 234q156 49 371 49q133 0 226.5 -27t139.5 -60.5t71.5 -94t29.5 -101.5t4 -106v-320h88v-258h-436l-23 115h-6q-84 -143 -260 -144q-133 0 -215 87t-82 216zM289 1265.5 q0 98.5 67.5 165t174 66.5t175 -67.5t68.5 -164t-68.5 -164t-175 -67.5t-174 66.5t-67.5 165zM387 317q0 -45 31 -74.5t78 -29.5t78.5 30.5t31.5 75.5q0 43 -31.5 74t-78.5 31q-45 0 -77 -31t-32 -76zM434 1266q0 -41 26.5 -72t69.5 -31q45 0 72 31t27 72t-27 71.5t-72 30.5 q-43 0 -69.5 -30.5t-26.5 -71.5z" />
<glyph unicode="&#xe6;" horiz-adv-x="1599" d="M41 262q0 178 140.5 256t451.5 78v18q0 55 -29 93t-90 38q-94 0 -115 -88h-340q27 145 139.5 227.5t288.5 82.5q127 0 197 -30t127 -83h6q109 113 277 113q205 0 335 -134.5t130 -361.5q0 -49 -5 -74h-606v-8q2 -84 47 -128t109 -44q100 0 137 94h305 q-45 -164 -160.5 -252t-281.5 -88q-127 0 -211 40t-162 124h-4q-43 -66 -132 -115t-224 -49q-152 0 -241 79t-89 212zM375 289q0 -72 94 -72q68 0 112 44t44 108v28q-135 0 -192.5 -23.5t-57.5 -84.5zM948 596h277q-4 59 -36 104t-97 45q-61 0 -100.5 -45t-43.5 -104z" />
<glyph unicode="&#xe7;" horiz-adv-x="1021" d="M41 477q0 197 110.5 343.5t321.5 146.5q158 0 240 -86v57h223v-369h-223q-12 47 -53.5 76t-88.5 29q-84 0 -122.5 -59.5t-38.5 -141.5q0 -84 42 -141.5t121 -57.5q100 0 129 121h267q-10 -104 -48 -189t-123 -150.5t-206 -80.5l-27 -49q80 -4 132.5 -38.5t52.5 -100.5 q0 -156 -271 -156h-129v121h66q102 0 102 66q0 68 -104 67h-33l45 97q-168 31 -276.5 163.5t-108.5 331.5z" />
<glyph unicode="&#xe8;" horiz-adv-x="1071" d="M41 471q0 215 135 355.5t377 140.5q193 0 335 -128t142 -368q0 -33 -6 -74h-616q2 -90 43 -135t98 -45q47 0 81 25.5t44 68.5h344q-102 -340 -477 -340q-213 0 -356.5 134.5t-143.5 365.5zM55 1350h385l308 -287h-238zM408 598h249q-4 66 -33.5 109t-86.5 43 q-53 0 -89 -46.5t-40 -105.5z" />
<glyph unicode="&#xe9;" horiz-adv-x="1071" d="M41 471q0 215 135 355.5t377 140.5q193 0 335 -128t142 -368q0 -33 -6 -74h-616q2 -90 43 -135t98 -45q47 0 81 25.5t44 68.5h344q-102 -340 -477 -340q-213 0 -356.5 134.5t-143.5 365.5zM322 1063l307 287h385l-455 -287h-237zM408 598h249q-4 66 -33.5 109t-86.5 43 q-53 0 -89 -46.5t-40 -105.5z" />
<glyph unicode="&#xea;" horiz-adv-x="1071" d="M41 471q0 215 135 355.5t377 140.5q193 0 335 -128t142 -368q0 -33 -6 -74h-616q2 -90 43 -135t98 -45q47 0 81 25.5t44 68.5h344q-102 -340 -477 -340q-213 0 -356.5 134.5t-143.5 365.5zM174 1065l361 336l360 -336h-246l-114 100l-115 -100h-246zM408 598h249 q-4 66 -33.5 109t-86.5 43q-53 0 -89 -46.5t-40 -105.5z" />
<glyph unicode="&#xeb;" horiz-adv-x="1071" d="M41 471q0 215 135 355.5t377 140.5q193 0 335 -128t142 -368q0 -33 -6 -74h-616q2 -90 43 -135t98 -45q47 0 81 25.5t44 68.5h344q-102 -340 -477 -340q-213 0 -356.5 134.5t-143.5 365.5zM188 1069v274h269v-274h-269zM408 598h249q-4 66 -33.5 109t-86.5 43 q-53 0 -89 -46.5t-40 -105.5zM612 1069v274h269v-274h-269z" />
<glyph unicode="&#xec;" horiz-adv-x="688" d="M-125 1350h385l307 -287h-237zM61 0v258h109v422h-109v258h488v-680h108v-258h-596z" />
<glyph unicode="&#xed;" horiz-adv-x="688" d="M61 0v258h109v422h-109v258h488v-680h108v-258h-596zM80 1063l307 287h385l-455 -287h-237z" />
<glyph unicode="&#xee;" horiz-adv-x="688" d="M-16 1065l360 336l361 -336h-246l-115 100l-115 -100h-245zM61 0v258h109v422h-109v258h488v-680h108v-258h-596z" />
<glyph unicode="&#xef;" horiz-adv-x="688" d="M-2 1069v274h268v-274h-268zM61 0v258h109v422h-109v258h488v-680h108v-258h-596zM422 1069v274h268v-274h-268z" />
<glyph unicode="&#xf0;" horiz-adv-x="1081" d="M41 424q0 207 138 331t319 124q111 0 164 -43l4 2q-61 137 -164 202l-248 -159l-98 151l153 96q-63 23 -170 29v203q225 -10 404 -82l190 121l98 -150l-112 -71q322 -250 321 -666q0 -242 -135 -392.5t-364 -150.5q-217 0 -358.5 131t-141.5 324zM401 430q0 -94 38 -142 t102 -48q59 0 98 54t39 136q0 80 -38 133t-99.5 53t-100.5 -52t-39 -134z" />
<glyph unicode="&#xf1;" horiz-adv-x="1298" d="M61 0v258h109v422h-109v258h457l23 -115h8q63 76 121.5 110t146.5 34q342 0 342 -432v-277h109v-258h-488v512q0 131 -108 131q-49 0 -86 -39t-37 -106v-240h108v-258h-596zM270 1073q0 123 56.5 204t165.5 81q70 0 170 -41t131 -41q61 0 61 78h172q0 -285 -221 -285 q-70 0 -170 41t-131 41q-61 0 -62 -78h-172z" />
<glyph unicode="&#xf2;" horiz-adv-x="1081" d="M41 469q0 217 141.5 357.5t358.5 140.5q221 0 360 -141.5t139 -356.5q0 -209 -141 -353.5t-358 -144.5t-358.5 141.5t-141.5 356.5zM61 1350h385l308 -287h-238zM401 469q0 -84 36 -134t103.5 -50t102.5 51t35 133q0 84 -34 134t-103.5 50t-104.5 -50t-35 -134z" />
<glyph unicode="&#xf3;" horiz-adv-x="1081" d="M41 469q0 217 141.5 357.5t358.5 140.5q221 0 360 -141.5t139 -356.5q0 -209 -141 -353.5t-358 -144.5t-358.5 141.5t-141.5 356.5zM328 1063l307 287h385l-455 -287h-237zM401 469q0 -84 36 -134t103.5 -50t102.5 51t35 133q0 84 -34 134t-103.5 50t-104.5 -50t-35 -134 z" />
<glyph unicode="&#xf4;" horiz-adv-x="1081" d="M41 469q0 217 141.5 357.5t358.5 140.5q221 0 360 -141.5t139 -356.5q0 -209 -141 -353.5t-358 -144.5t-358.5 141.5t-141.5 356.5zM180 1065l361 336l360 -336h-246l-114 100l-115 -100h-246zM401 469q0 -84 36 -134t103.5 -50t102.5 51t35 133q0 84 -34 134t-103.5 50 t-104.5 -50t-35 -134z" />
<glyph unicode="&#xf5;" horiz-adv-x="1081" d="M41 469q0 217 141.5 357.5t358.5 140.5q221 0 360 -141.5t139 -356.5q0 -209 -141 -353.5t-358 -144.5t-358.5 141.5t-141.5 356.5zM162 1073q0 123 56 204t165 81q70 0 170 -41t131 -41q61 0 61 78h173q0 -285 -222 -285q-70 0 -170 41t-131 41q-61 0 -61 -78h-172z M401 469q0 -84 36 -134t103.5 -50t102.5 51t35 133q0 84 -34 134t-103.5 50t-104.5 -50t-35 -134z" />
<glyph unicode="&#xf6;" horiz-adv-x="1081" d="M41 469q0 217 141.5 357.5t358.5 140.5q221 0 360 -141.5t139 -356.5q0 -209 -141 -353.5t-358 -144.5t-358.5 141.5t-141.5 356.5zM195 1069v274h268v-274h-268zM401 469q0 -84 36 -134t103.5 -50t102.5 51t35 133q0 84 -34 134t-103.5 50t-104.5 -50t-35 -134z M618 1069v274h269v-274h-269z" />
<glyph unicode="&#xf7;" horiz-adv-x="1429" d="M102 500v262h1225v-262h-1225zM567 0v266h295v-266h-295zM567 995v267h295v-267h-295z" />
<glyph unicode="&#xf8;" horiz-adv-x="1081" d="M41 -53l137 168q-137 143 -137 354q0 217 141.5 357.5t358.5 140.5q150 0 270 -72l68 84h161l-131 -164q131 -141 131 -346q0 -209 -141 -353.5t-358 -144.5q-145 0 -265 70l-73 -94h-162zM356 467q0 -57 17 -111l256 316q-41 20 -88 20q-88 0 -136.5 -59.5t-48.5 -165.5 zM455 262q35 -20 86 -20q86 0 134 61.5t48 163.5q0 49 -14 102z" />
<glyph unicode="&#xf9;" horiz-adv-x="1247" d="M31 680v258h487v-508q0 -129 98 -129q53 0 83 38t30 107v234h-108v258h487v-680h109v-258h-457l-23 115h-8q-111 -143 -266 -144q-324 0 -324 437v272h-108zM143 1350h385l308 -287h-238z" />
<glyph unicode="&#xfa;" horiz-adv-x="1247" d="M31 680v258h487v-508q0 -129 98 -129q53 0 83 38t30 107v234h-108v258h487v-680h109v-258h-457l-23 115h-8q-111 -143 -266 -144q-324 0 -324 437v272h-108zM410 1063l307 287h385l-455 -287h-237z" />
<glyph unicode="&#xfb;" horiz-adv-x="1247" d="M31 680v258h487v-508q0 -129 98 -129q53 0 83 38t30 107v234h-108v258h487v-680h109v-258h-457l-23 115h-8q-111 -143 -266 -144q-324 0 -324 437v272h-108zM262 1065l361 336l360 -336h-246l-114 100l-115 -100h-246z" />
<glyph unicode="&#xfc;" horiz-adv-x="1247" d="M31 680v258h487v-508q0 -129 98 -129q53 0 83 38t30 107v234h-108v258h487v-680h109v-258h-457l-23 115h-8q-111 -143 -266 -144q-324 0 -324 437v272h-108zM276 1069v274h269v-274h-269zM700 1069v274h269v-274h-269z" />
<glyph unicode="&#xfd;" horiz-adv-x="1015" d="M0 680v258h467v-258h-43l111 -311h8l108 311h-45v258h410v-258h-88l-256 -682q-61 -164 -167 -249t-290 -85h-94v258h94q109 0 135 74l10 33l-272 651h-88zM254 1063l307 287h385l-454 -287h-238z" />
<glyph unicode="&#xfe;" horiz-adv-x="1196" d="M41 -78h109v1180h-109v258h465v-537h4q94 137 266 138q162 0 270.5 -131.5t108.5 -350.5q0 -217 -113.5 -357t-293.5 -140q-170 0 -234 129h-8v-189h108v-258h-573v258zM498 473q0 -94 37.5 -145.5t101.5 -51.5q72 0 110.5 56.5t38.5 136.5q0 82 -36.5 136t-110.5 54 q-61 0 -101 -49t-40 -137z" />
<glyph unicode="&#xff;" horiz-adv-x="1015" d="M0 680v258h467v-258h-43l111 -311h8l108 311h-45v258h410v-258h-88l-256 -682q-61 -164 -167 -249t-290 -85h-94v258h94q109 0 135 74l10 33l-272 651h-88zM190 1069v274h269v-274h-269zM614 1069v274h269v-274h-269z" />
<glyph unicode="&#x152;" horiz-adv-x="1787" d="M41 678q0 287 192.5 484.5t546.5 197.5h951v-442h-261v147h-227v-227h184v-277h-184v-266h227v188h261v-483h-994q-176 0 -314 59.5t-219 158.5t-122 216t-41 244zM485 678q0 -166 69 -274.5t210 -108.5h57v770h-51q-135 0 -210 -108.5t-75 -278.5z" />
<glyph unicode="&#x153;" horiz-adv-x="1673" d="M20 469q0 217 137.5 357.5t338.5 140.5q240 0 331 -146h4q117 145 324 146q219 0 348 -139.5t129 -356.5l-6 -74h-616q2 -82 43 -131t98 -49q98 0 125 94h344q-41 -156 -159 -248t-304 -92q-102 0 -194.5 39t-131.5 101h-4q-96 -139 -321 -140q-207 0 -346.5 132.5 t-139.5 365.5zM381 463q0 -115 40 -180.5t114 -65.5q141 0 141 246q0 258 -137 258q-76 0 -117 -69.5t-41 -188.5zM1010 598h250q-4 63 -35 107.5t-86 44.5q-51 0 -88 -45.5t-41 -106.5z" />
<glyph unicode="&#x178;" horiz-adv-x="1335" d="M31 1065v295h622v-295h-84l150 -315h6l154 315h-84v295h510v-295h-93l-340 -549v-221h109v-295h-639v295h109v221l-328 549h-92zM381 1448v274h268v-274h-268zM805 1448v274h268v-274h-268z" />
<glyph unicode="&#x2c6;" horiz-adv-x="716" d="M-2 1065l360 336l361 -336h-246l-115 100l-114 -100h-246z" />
<glyph unicode="&#x2c9;" horiz-adv-x="716" d="M25 1106v182h665v-182h-665z" />
<glyph unicode="&#x2dc;" horiz-adv-x="716" d="M-20 1073q0 123 56 204t165 81q70 0 170 -41t131 -41q61 0 61 78h172q0 -285 -221 -285q-70 0 -170 41t-131 41q-61 0 -61 -78h-172z" />
<glyph unicode="&#x3bc;" horiz-adv-x="1247" d="M33 680v258h485v-506q0 -63 26.5 -97t71.5 -34q51 0 82 38t31 107v234h-108v258h487v-680h109v-258h-457l-17 82h-4q-45 -109 -149 -109q-53 0 -94 21l-4 -2q8 -119 8 -209v-119h-361v1016h-106z" />
<glyph unicode="&#x2000;" horiz-adv-x="937" />
<glyph unicode="&#x2001;" horiz-adv-x="1878" />
<glyph unicode="&#x2002;" horiz-adv-x="937" />
<glyph unicode="&#x2003;" horiz-adv-x="1878" />
<glyph unicode="&#x2004;" horiz-adv-x="624" />
<glyph unicode="&#x2005;" horiz-adv-x="468" />
<glyph unicode="&#x2006;" horiz-adv-x="311" />
<glyph unicode="&#x2007;" horiz-adv-x="311" />
<glyph unicode="&#x2008;" horiz-adv-x="233" />
<glyph unicode="&#x2009;" horiz-adv-x="374" />
<glyph unicode="&#x200a;" horiz-adv-x="102" />
<glyph unicode="&#x2010;" horiz-adv-x="688" d="M61 500v262h566v-262h-566z" />
<glyph unicode="&#x2011;" horiz-adv-x="688" d="M61 500v262h566v-262h-566z" />
<glyph unicode="&#x2012;" horiz-adv-x="688" d="M61 500v262h566v-262h-566z" />
<glyph unicode="&#x2013;" horiz-adv-x="1024" d="M61 387v318h902v-318h-902z" />
<glyph unicode="&#x2014;" horiz-adv-x="2048" d="M61 387v318h1926v-318h-1926z" />
<glyph unicode="&#x2018;" horiz-adv-x="483" d="M27 795l69 211l205 393h164l-64 -393l-69 -211h-305z" />
<glyph unicode="&#x2019;" horiz-adv-x="483" d="M18 795l64 393l70 211h305l-70 -211l-205 -393h-164z" />
<glyph unicode="&#x201a;" horiz-adv-x="483" d="M18 -266l64 393l70 211h305l-70 -211l-205 -393h-164z" />
<glyph unicode="&#x201c;" horiz-adv-x="897" d="M18 795l70 211l205 393h164l-64 -393l-69 -211h-306zM432 795l70 211l205 393h163l-63 -393l-70 -211h-305z" />
<glyph unicode="&#x201d;" horiz-adv-x="897" d="M27 795l63 393l70 211h305l-70 -211l-205 -393h-163zM440 795l64 393l69 211h306l-70 -211l-205 -393h-164z" />
<glyph unicode="&#x201e;" horiz-adv-x="897" d="M27 -266l63 393l70 211h305l-70 -211l-205 -393h-163zM440 -266l64 393l69 211h306l-70 -211l-205 -393h-164z" />
<glyph unicode="&#x2022;" horiz-adv-x="1218" d="M231 645q0 158 111 268.5t266 110.5q158 0 268.5 -110.5t110.5 -268.5q0 -156 -110.5 -266.5t-268 -110.5t-267.5 109.5t-110 267.5z" />
<glyph unicode="&#x2026;" horiz-adv-x="1843" d="M117 0v344h381v-344h-381zM731 0v344h381v-344h-381zM1346 0v344h380v-344h-380z" />
<glyph unicode="&#x202f;" horiz-adv-x="374" />
<glyph unicode="&#x2039;" horiz-adv-x="686" d="M102 459l240 381h240l-181 -375l183 -375h-242z" />
<glyph unicode="&#x203a;" horiz-adv-x="686" d="M102 840h242l240 -369l-240 -381h-240l187 375z" />
<glyph unicode="&#x205f;" horiz-adv-x="468" />
<glyph unicode="&#x20ac;" d="M39 440l29 162h110q0 8 -1 37t-1 45q0 31 2 51h-139l29 162h129q18 92 56 173t103.5 157t172 120t241.5 44q236 0 385 -105v-282h-258v106q-47 14 -84 14q-152 0 -188 -227h354l-29 -162h-340q-4 -37 -4 -63q0 -10 2 -36t2 -34h316l-29 -162h-268q20 -100 94 -152 t176 -52q158 0 264 67v-258q-137 -76 -348 -76q-258 0 -410.5 128t-203.5 343h-162z" />
<glyph unicode="&#x2122;" horiz-adv-x="1581" d="M25 1100v260h608v-260h-125v117h-80v-410h74v-143h-346v143h73v410h-79v-117h-125zM694 664v143h56v410h-56v143h293l107 -342h2l106 342h301v-143h-51v-410h51v-143h-286v143h55v248q0 59 4 137h-6q-4 -33 -35 -135l-119 -393h-67l-129 393q-23 70 -37 137h-4 q4 -82 4 -141v-246h57v-143h-246z" />
<glyph unicode="&#xe000;" horiz-adv-x="940" d="M0 940h940v-940h-940v940z" />
<glyph unicode="&#xfb01;" horiz-adv-x="1441" d="M61 0v258h109v422h-109v258h109v63q0 168 96 263.5t287 95.5h729v-309h-389v71h-250q-41 0 -67.5 -28.5t-26.5 -75.5v-80h754v-680h108v-258h-596v258h109v422h-375v-422h143v-258h-631z" />
<glyph unicode="&#xfb02;" horiz-adv-x="1431" d="M61 0v258h109v422h-109v258h109v63q0 168 96 263.5t287 95.5h739v-1102h109v-258h-596v258h108v844h-270q-41 0 -67.5 -29t-26.5 -76v-59h143v-258h-143v-422h143v-258h-631z" />
<glyph unicode="&#xfb03;" horiz-adv-x="2195" d="M1568 0v258h109v422h-109v258h488v-680h108v-258h-596zM1646 1051v311h389v-311h-389zM815 0v258h109v422h-109v258h109v63q0 168 96 263.5t287 95.5h180v-258h-90q-41 0 -67.5 -29t-26.5 -76v-59h143v-258h-143v-422h143v-258h-631zM61 0v258h109v422h-109v258h109v63 q0 168 96 263.5t287 95.5h180v-258h-90q-41 0 -67.5 -29t-26.5 -76v-59h143v-258h-143v-422h143v-258h-631z" />
<glyph unicode="&#xfb04;" horiz-adv-x="2185" d="M1558 0v258h109v844h-109v258h488v-1102h108v-258h-596zM815 0v258h109v422h-109v258h109v63q0 168 96 263.5t287 95.5h180v-258h-90q-41 0 -67.5 -29t-26.5 -76v-59h143v-258h-143v-422h143v-258h-631zM61 0v258h109v422h-109v258h109v63q0 168 96 263.5t287 95.5h180 v-258h-90q-41 0 -67.5 -29t-26.5 -76v-59h143v-258h-143v-422h143v-258h-631z" />
</font>
</defs>
</svg>
